<?xml version="1.0" standalone="no"?>
<!DOCTYPE svg PUBLIC "-//W3C//DTD SVG 20010904//EN"
 "http://www.w3.org/TR/2001/REC-SVG-20010904/DTD/svg10.dtd">
<svg version="1.0" xmlns="http://www.w3.org/2000/svg"
 width="700.000000pt" height="700.000000pt" viewBox="0 0 700.000000 700.000000"
 preserveAspectRatio="xMidYMid meet">
<metadata>
Created by potrace 1.11, written by Peter Selinger 2001-2013
</metadata>
<g transform="translate(0.000000,700.000000) scale(0.100000,-0.100000)"
fill="#000000" stroke="none">
<path d="M3996 6744 c-102 -59 -150 -103 -250 -225 -32 -39 -105 -182 -132
-260 -32 -91 -63 -231 -64 -281 0 -21 -3 -38 -6 -38 -3 0 -24 13 -47 29 -128
88 -360 180 -517 205 -19 3 -44 8 -56 10 -89 18 -334 25 -469 13 -78 -7 -212
-25 -235 -32 -8 -2 -31 -7 -50 -10 -143 -24 -434 -119 -620 -202 -668 -297
-1097 -779 -1218 -1373 -28 -132 -26 -357 2 -415 19 -38 154 -181 206 -218
222 -156 437 -248 700 -298 175 -34 457 -33 678 2 291 45 710 209 1014 396
271 165 518 393 666 613 107 160 178 320 215 488 l23 103 47 -36 c115 -88 277
-167 416 -204 136 -37 319 -34 448 7 38 12 72 31 56 32 -25 0 -343 221 -453
314 -85 72 -248 247 -279 300 -37 62 -65 139 -79 216 -12 64 -13 337 -1 425 5
39 11 90 14 115 6 53 41 247 55 305 16 67 18 67 -64 19z m-3000 -1629 c95 -47
147 -131 148 -240 1 -151 -106 -267 -256 -279 -78 -6 -182 42 -232 107 -23 31
-69 140 -61 149 1 1 5 27 8 56 7 62 41 126 93 171 83 73 197 86 300 36z"/>
<path d="M4018 3886 c-1 -2 -32 -6 -68 -9 -118 -11 -213 -42 -297 -96 -208
-135 -318 -362 -317 -656 1 -126 14 -228 49 -385 20 -89 63 -247 75 -275 4
-11 23 -63 41 -115 17 -52 52 -142 76 -199 24 -58 40 -108 36 -112 -5 -4 -30
-19 -58 -33 -57 -31 -59 -32 -175 -105 -162 -102 -310 -233 -378 -332 -80
-118 -99 -255 -51 -359 46 -97 150 -177 279 -214 166 -47 353 -40 466 17 121
62 315 229 408 351 l38 50 -7 -35 c-19 -97 -22 -127 -20 -169 7 -114 55 -196
145 -244 73 -39 162 -42 232 -7 74 38 158 130 194 211 8 19 10 -9 10 -125 -1
-314 43 -478 161 -605 129 -140 307 -231 452 -231 83 -1 147 23 206 75 122
106 158 275 119 546 -17 115 -64 302 -98 395 -15 37 -26 69 -26 70 0 1 24 13
53 25 76 32 301 145 382 192 522 303 750 583 747 923 0 55 -2 107 -4 115 -23
81 -32 106 -51 147 -69 148 -209 282 -397 379 -188 98 -311 110 -470 47 -204
-81 -406 -276 -609 -588 -39 -60 -71 -107 -71 -104 0 3 9 24 20 48 49 100 82
224 86 319 4 102 -4 130 -49 179 -57 61 -148 62 -221 1 -66 -54 -121 -141
-186 -293 -31 -71 -31 -70 -14 27 1 9 6 38 10 65 3 26 8 56 10 65 7 42 17 209
16 278 -1 121 -10 192 -37 310 -22 94 -84 207 -150 273 -55 53 -109 82 -227
121 -101 34 -136 41 -248 52 -30 3 -60 7 -67 9 -6 2 -13 2 -15 1z"/>
</g>
</svg>
