<svg xmlns="http://www.w3.org/2000/svg" xmlns:xlink="http://www.w3.org/1999/xlink" x="0px" y="0px" height="100" width="100"
	 viewBox="0 0 100 100">
<style type="text/css">
	.st0{fill:#EEE7B9;}
	.st1{fill:#FFF5E3;}
</style>
<path class="st1" d="M75.31,86.34c2.88,0,2.88-3.62,2.88-3.62s0.96,3.62,2.88,5.43c1.52,1.43,6.72,2.72,7.68-0.91
	c0.84-3.17-3.84-8.15-3.84-8.15s5.76-5.43,6.72-9.96c0.96-4.53-1.92-8.15-7.68-8.15s-6.72,10.86-6.72,10.86s0.96-6.34-1.92-6.34
	h0.18c-2.88,0-1.92,6.34-1.92,6.34S72.62,61,66.86,61s-8.64,3.62-7.68,8.15c0.96,4.53,6.72,9.96,6.72,9.96s-4.68,4.98-3.84,8.15
	c0.96,3.62,6.16,2.34,7.68,0.91c1.92-1.81,2.88-5.43,2.88-5.43s0,3.62,2.88,3.62H75.31z"/>
<path class="st1" d="M46,15.85c-5,0-7.42,5.25-7.42,5.25s-3.37-7.25-16.2-7.25C9.55,13.85,5.5,22.66,5.5,24.42S9.55,35,22.38,35
	c12.83,0,16.2-7.25,16.2-7.25S41,33,46,33c0,0-4.05-5.33-4.05-8.58S46,15.85,46,15.85z M12.5,23c-1.38,0-2.5-1.12-2.5-2.5
	c0-1.38,1.12-2.5,2.5-2.5s2.5,1.12,2.5,2.5C15,21.88,13.88,23,12.5,23z"/>
</svg>
