<?xml version="1.0" encoding="utf-8"?>
<!-- Generator: Adobe Illustrator 24.1.0, SVG Export Plug-In . SVG Version: 6.00 Build 0)  -->
<svg version="1.1" id="Layer_1" xmlns="http://www.w3.org/2000/svg" xmlns:xlink="http://www.w3.org/1999/xlink" x="0px" y="0px"
	 viewBox="0 0 100 100" style="enable-background:new 0 0 100 100;" xml:space="preserve">
<style type="text/css">
	.st0{fill:#69CE6B;}
	.st1{fill:#3CBEB6;}
</style>
<path class="st0" d="M61.07,86.36c4.08,1.61,6.1-3.52,6.1-3.52s-0.66,5.66,1.05,9.3c1.35,2.87,8,7.59,11.38,3
	c2.96-4.02-0.89-13.68-0.89-13.68S89.9,76.98,93.78,71.1c3.88-5.88,1.83-12.61-6.33-15.82c-8.16-3.21-15.58,11.64-15.58,11.64
	s4.89-8.44,0.82-10.05l0.26,0.1c-4.08-1.61-6.25,7.9-6.25,7.9s4.7-15.92-3.46-19.13S48.98,46.05,47.81,53
	c-1.17,6.95,3.96,17.85,3.96,17.85s-9.41,4.44-9.98,9.4c-0.66,5.66,7.42,6.75,10.37,5.57c3.73-1.49,7.11-6.09,7.11-6.09
	s-2.02,5.13,2.06,6.73L61.07,86.36z"/>
<path class="st1" d="M58.19,3.11c-7.25,3.07-7.54,12.16-7.54,12.16s-9.33-8.44-27.94-0.56C4.11,22.58,3.65,37.84,4.73,40.4
	c1.08,2.56,12.36,12.85,30.96,4.97C54.3,37.5,54.74,24.92,54.74,24.92s6.73,6.12,13.98,3.05c0,0-9.14-5.24-11.13-9.95
	S58.19,3.11,58.19,3.11z M14.01,34.04c-2,0.85-4.31-0.09-5.16-2.09c-0.85-2,0.09-4.31,2.09-5.16c2-0.85,4.31,0.09,5.16,2.09
	C16.95,30.88,16.01,33.19,14.01,34.04z"/>
</svg>
